<?xml version="1.0" encoding="utf-8"?>
<!-- Generator: Adobe Illustrator 19.1.0, SVG Export Plug-In . SVG Version: 6.00 Build 0)  -->
<svg version="1.1" id="Layer_1" xmlns="http://www.w3.org/2000/svg" xmlns:xlink="http://www.w3.org/1999/xlink" x="0px" y="0px"
	 viewBox="0 0 500 500" style="enable-background:new 0 0 500 500;" xml:space="preserve">
<style type="text/css">
	.st0{fill:#224E65;}
</style>
<g id="SvgjsG1035" transform="translate(-3.3112987231856934,-6.623810080181147) scale(0.5518831205309489)">
	<g transform="translate(0,-952.36218)">
		<path class="st0" d="M134.9,1043.5c-31.6,0-59.5,16.9-78.4,42.1c-18.9,25.2-29.8,59-29.8,95.6v354.2c0,36.7,10.9,70.1,29.8,95.3
			c18.9,25.2,46.8,42.4,78.4,42.4h242.3c-18.2,20.8-30.3,48.4-34.1,78.7H213.6c-0.6,0-1.2,0-1.8,0c-10.9,0.5-19.3,9.7-18.8,20.6
			c0.5,10.9,9.7,19.3,20.6,18.8c0,0,0,0,0.1,0h146h200.1h145.7c10.9,0.2,19.8-8.5,20-19.4c0.2-10.9-8.5-19.8-19.4-20
			c-0.2,0-0.4,0-0.6,0H576c-3.8-30.3-15.9-57.9-34.1-78.7h242.3c31.6,0,59.5-17.2,78.4-42.4c18.9-25.2,29.8-58.6,29.8-95.3v-354.2
			c0-36.7-10.9-70.4-29.8-95.6c-18.9-25.2-46.8-42.1-78.4-42.1H134.9z M134.9,1082.8h649.3c17.5,0,33.9,9,47,26.4
			c13.1,17.5,21.8,43.2,21.8,71.9v354.2c0,28.7-8.7,54.2-21.8,71.6c-13.1,17.5-29.6,26.7-47,26.7H134.9c-17.5,0-33.9-9.3-47-26.7
			c-13.1-17.5-21.8-42.9-21.8-71.6v-354.2c0-28.7,8.7-54.5,21.8-71.9C100.9,1091.8,117.4,1082.8,134.9,1082.8z M144.7,1102.5
			c-18.8,0-34.6,11.3-44.3,25.8c-9.7,14.5-14.8,33-14.8,52.9v354.2c0,19.9,5.1,38,14.8,52.6c9.7,14.5,25.5,26.1,44.3,26.1h629.6
			c18.8,0,34.6-11.6,44.3-26.1c9.7-14.5,14.8-32.7,14.8-52.6v-354.2c0-19.9-5.1-38.3-14.8-52.9c-9.7-14.5-25.5-25.8-44.3-25.8H144.7
			z M144.7,1141.8h629.6c3,0,6.8,1.5,11.4,8.3c4.5,6.8,8.3,18.2,8.3,31.1v354.2c0,12.8-3.8,23.9-8.3,30.7c-4.5,6.8-8.4,8.6-11.4,8.6
			H144.7c-3,0-6.8-1.8-11.4-8.6c-4.5-6.8-8.3-17.9-8.3-30.7v-354.2c0-12.8,3.8-24.2,8.3-31.1
			C137.9,1143.3,141.7,1141.8,144.7,1141.8z M408.2,1239.9c-10.8,1.1-18.7,10.7-17.7,21.5c0.5,4.7,2.6,9.1,6,12.3l18.8,18.8
			c-6.8,7.8-10.1,16.7-10.1,26.4c0,2.3,0.2,4.6,0.6,6.8l-11.1-11.1c-4.2-4.3-10-6.4-16-5.8c-10.8,1.1-18.7,10.7-17.7,21.5
			c0.5,4.7,2.6,9.1,6,12.3l19.4,19.4c-1.9,5-3.4,10.5-4.3,16H371c-0.6,0-1.2,0-1.8,0c-10.9,0.5-19.3,9.7-18.8,20.6
			c0.5,10.9,9.7,19.3,20.6,18.8c0,0,0,0,0.1,0h13.5c1.3,4.4,3,8.5,4.9,12.6l-12.6,12.6c-7.9,7.5-8.2,19.9-0.7,27.8
			c7.5,7.9,19.9,8.2,27.8,0.7c0.2-0.2,0.4-0.4,0.5-0.5l9.8-9.8c12.7,9.7,28.1,15.7,45.2,15.7c17.1,0,32.5-5.9,45.2-15.7l9.8,9.8
			c7.6,7.8,20,8,27.8,0.4c7.8-7.6,8-20,0.4-27.8c-0.2-0.2-0.4-0.4-0.5-0.5l-12.6-12.6c1.9-4.1,3.6-8.2,4.9-12.6H548
			c10.9,0.2,19.8-8.5,20-19.4c0.2-10.9-8.5-19.8-19.4-20c-0.2,0-0.4,0-0.6,0H537c-0.9-5.5-2.4-10.9-4.3-16l19.4-19.4
			c7.9-7.4,8.3-19.9,0.9-27.8c-4.4-4.7-10.8-6.9-17.2-6c-4.3,0.6-8.3,2.7-11.4,5.8l-11.1,11.1c0.4-2.2,0.6-4.5,0.6-6.8
			c0-9.7-3.4-18.6-10.1-26.4l18.8-18.8c7.9-7.4,8.3-19.9,0.9-27.8c-4.4-4.7-10.8-6.9-17.2-6c-4.3,0.6-8.3,2.7-11.4,5.8l-19.7,19.7
			c-2.7,2.5-4.6,5.7-5.5,9.2c-3.2-0.5-6.6-0.6-10.1-0.6c-3.6,0-7.2,0.1-10.5,0.6c-0.9-3.5-2.7-6.7-5.2-9.2l-19.7-19.7
			C420,1241.5,414.1,1239.3,408.2,1239.9z M459.5,1306.9c2.2,2.5,4.6,6.8,4.6,12c0,5.2-2.4,9.5-4.6,12c-2.2-2.5-4.6-6.8-4.6-12
			C454.9,1313.7,457.3,1309.4,459.5,1306.9z M434.3,1358.9c7.1,3,15.7,4.9,25.2,4.9c9.5,0,18.1-2,25.2-4.9
			c8.3,8.3,14.1,19.8,14.1,32.9c0,26.1-18.4,45.2-39.4,45.2c-20.9,0-39.4-19.1-39.4-45.2C420.2,1379,426.1,1367.2,434.3,1358.9z
			 M459.5,1673.1c36.4,0,68,32.9,75.6,78.7H383.9C391.5,1706,423.1,1673.1,459.5,1673.1z"/>
	</g>
</g>
</svg>
