<svg xmlns="http://www.w3.org/2000/svg" version="1.1" height="41.97296142578122" width="175.86215473123522">
    <g id="SvgjsG1034" rel="mainfill" name="main_text"
       fill="#204d64" transform="translate(62.574174055537895,-8.682553291320815)">
        <path d="M1.2966 32.4664 l1.4486 -1.6782 c0.30508 -0.35619 0.68644 -0.35619 0.9661 -0.15279 c0.83898 0.71186 2.339 2.0593 4.2203 2.0593 c1.8305 0 3.4068 -0.68669 3.4068 -2.263 c0 -1.6525 -1.7034 -2.1356 -3.4576 -2.8475 c-3.6356 -1.5 -6.2797 -3.0508 -6.2797 -6.3559 c0 -2.5932 1.9068 -5.7203 6.5085 -5.7203 c3.1271 0 5.3901 1.7799 6.0511 2.4409 c0.27966 0.27966 0.4322 0.63559 0.17797 0.94068 l-1.2712 1.678 c-0.25449 0.33051 -0.61017 0.48305 -1.0169 0.20339 c-0.81356 -0.63559 -2.1356 -1.8051 -3.9153 -1.8051 c-1.8051 0 -2.9237 1.0424 -2.9237 2.2627 c0 1.3475 1.1695 2.0085 3.0763 2.7712 c3.3305 1.3988 6.661 2.8988 6.661 6.4836 c0 2.9746 -2.9489 5.6947 -6.9658 5.6947 c-3.6356 0 -5.8983 -2.3133 -6.5339 -2.9235 c-0.22881 -0.20339 -0.45763 -0.48305 -0.15254 -0.78814 z M27.839220338983054 33.9153 c0.17797 0.25424 0.17797 0.48331 -0.050847 0.66127 c-1.0678 0.94068 -2.4661 1.6014 -4.1186 1.6014 c-3.5085 0 -6.5593 -2.8472 -6.5593 -6.4319 c0 -3.6102 3.0508 -6.5085 6.5593 -6.5085 c1.678 0 3.0254 0.61017 4.0932 1.5763 c0.22881 0.20339 0.22881 0.4322 0.050847 0.68619 l-1.2201 1.5763 c-0.17822 0.22881 -0.38161 0.30508 -0.73754 0.050847 c-0.55958 -0.43195 -1.1949 -0.61017 -2.1102 -0.61017 c-1.8051 0 -3.2542 1.3475 -3.2542 3.2034 c0 1.8051 1.4492 3.2034 3.2542 3.2034 c0.91525 0 1.5254 -0.20339 2.1102 -0.68644 c0.35593 -0.25424 0.55932 -0.15254 0.73754 0.10169 z M39.83905084745763 23.948999999999998 c0.33051 0.22881 0.45788 0.40678 0.20389 0.76271 l-1.322 1.9322 c-0.15254 0.22881 -0.35593 0.30508 -0.66102 0.22881 c-0.35593 -0.12712 -0.71186 -0.30508 -1.4748 -0.30508 c-0.76271 0 -2.1864 0.33051 -2.5678 1.9831 l0 6.9661 c0 0.25424 -0.20339 0.4828 -0.48305 0.4828 l-2.5678 0 c-0.25424 0 -0.45763 -0.22856 -0.45763 -0.4828 l0 -11.618 c0 -0.25424 0.20339 -0.48305 0.45763 -0.48305 l1.7542 0 c0.68644 0 1.1441 0.61017 1.2709 1.1441 c0.76297 -0.66102 1.7545 -1.246 3.2034 -1.246 c1.2966 0 2.2119 0.33051 2.6441 0.63559 z M52.16938983050848 30.8901 c1.1186 0 1.8562 -0.61042 1.8562 -1.8308 c0 -2.9746 -2.339 -5.822 -6.1017 -5.822 c-3.5593 0 -6.3305 2.7712 -6.3305 6.4576 c0 3.8644 2.9235 6.4319 6.4828 6.4319 c2.2627 0 4.0678 -0.78814 5.1102 -2.2627 c0.17797 -0.22881 0.12712 -0.40678 -0.076271 -0.66102 l-0.58475 -0.81331 c-0.25424 -0.33051 -0.48305 -0.27966 -0.78814 -0.12712 c-0.68644 0.38136 -2.0085 0.78814 -3.2542 0.78814 c-1.5254 0 -2.8983 -0.73729 -3.2034 -2.1608 l6.8898 0 z M45.30508983050848 28.1949 c0.12712 -0.81356 1.0932 -1.7542 2.5424 -1.7542 c1.4746 0 2.3898 0.91525 2.5169 1.7542 l-5.0593 0 z M66.4066779661017 30.8901 c1.1186 0 1.8562 -0.61042 1.8562 -1.8308 c0 -2.9746 -2.339 -5.822 -6.1017 -5.822 c-3.5593 0 -6.3305 2.7712 -6.3305 6.4576 c0 3.8644 2.9235 6.4319 6.4828 6.4319 c2.2627 0 4.0678 -0.78814 5.1102 -2.2627 c0.17797 -0.22881 0.12712 -0.40678 -0.076271 -0.66102 l-0.58475 -0.81331 c-0.25424 -0.33051 -0.48305 -0.27966 -0.78814 -0.12712 c-0.68644 0.38136 -2.0085 0.78814 -3.2542 0.78814 c-1.5254 0 -2.8983 -0.73729 -3.2034 -2.1608 l6.8898 0 z M59.542377966101704 28.1949 c0.12712 -0.81356 1.0932 -1.7542 2.5424 -1.7542 c1.4746 0 2.3898 0.91525 2.5169 1.7542 l-5.0593 0 z M83.16096610169492 35.36466 c0.050847 0.33051 -0.050598 0.63534 -0.30483 0.63534 l-2.1356 0 c-0.81356 0 -1.2712 -0.55932 -1.2712 -1.2712 l0 -6.2797 c0 -1.4237 -1.0932 -2.0847 -2.2881 -2.0847 c-1.1186 0 -2.0847 0.50847 -2.9492 1.2966 l0 7.8559 c0 0.25424 -0.22881 0.4828 -0.48305 0.4828 l-2.5678 0 c-0.25424 0 -0.45763 -0.22856 -0.45763 -0.4828 l0 -11.618 c0 -0.25424 0.20339 -0.48305 0.45763 -0.48305 l1.7542 0 c0.63559 0 1.0675 0.5339 1.2203 1.0424 c0.91525 -0.63559 2.0847 -1.2203 3.5339 -1.2203 c2.6184 0 5.2881 1.7545 5.2881 4.8814 l0 5.5932 c0.025175 0.71186 0.10145 1.1949 0.20314 1.6525 z M95.92362711864406 30.8901 c1.1186 0 1.8562 -0.61042 1.8562 -1.8308 c0 -2.9746 -2.339 -5.822 -6.1017 -5.822 c-3.5593 0 -6.3305 2.7712 -6.3305 6.4576 c0 3.8644 2.9235 6.4319 6.4828 6.4319 c2.2627 0 4.0678 -0.78814 5.1102 -2.2627 c0.17797 -0.22881 0.12712 -0.40678 -0.076271 -0.66102 l-0.58475 -0.81331 c-0.25424 -0.33051 -0.48305 -0.27966 -0.78814 -0.12712 c-0.68644 0.38136 -2.0085 0.78814 -3.2542 0.78814 c-1.5254 0 -2.8983 -0.73729 -3.2034 -2.1608 l6.8898 0 z M89.05932711864406 28.1949 c0.12712 -0.81356 1.0932 -1.7542 2.5424 -1.7542 c1.4746 0 2.3898 0.91525 2.5169 1.7542 l-5.0593 0 z M112.7289152542373 23.415 c0.35593 0 0.55907 0.25449 0.3811 0.58475 l-4.8814 10.017 c-2.6695 5.5421 -4.8051 8.6184 -5.8475 9.5845 c-0.30508 0.22881 -0.63559 0.12712 -0.9661 -0.20339 l-1.3983 -1.3983 c-0.33051 -0.33051 -0.27966 -0.63559 0.025424 -1.0169 c1.4746 -1.6525 3.2288 -4.2712 4.5508 -7.2458 l-5.1864 -9.7373 c-0.15229 -0.33025 0 -0.58449 0.35619 -0.58449 l2.7966 0 c0.30508 0 0.45763 0.12712 0.58475 0.35593 l3.2288 6.5847 l3.0252 -6.5847 c0.12712 -0.22881 0.30508 -0.35593 0.585 -0.35593 l2.7458 0 z"></path>
    </g>
    <defs id="SvgjsDefs1033"></defs>
    <g id="SvgjsG1035" rel="mainfill" name="symbol"
       fill="#204d64" transform="translate(-3.3112987231856934,-6.623810080181147) scale(0.5518831205309489)">
        <g xmlns="http://www.w3.org/2000/svg" transform="translate(0,-952.36218)">
            <path style="text-indent:0;text-transform:none;direction:ltr;block-progression:tb;baseline-shift:baseline;color:;enable-background:accumulate;"
                  d="m 17,964.36439 c -3.208604,0 -6.047759,1.71988 -7.96875,4.28113 C 7.1102593,971.20677 6,974.63757 6,978.36399 l 0,35.99891 c 0,3.7264 1.1102593,7.126 3.03125,9.6873 1.920991,2.5612 4.760146,4.3123 7.96875,4.3123 l 24.625,0 c -1.852547,2.1189 -3.083051,4.92 -3.46875,7.9998 l -13.15625,0 a 2.0002,2.0001417 0 0 0 -0.1875,0 2.0021961,2.0021378 0 1 0 0.1875,3.9999 l 14.84375,0 20.34375,0 14.8125,0 a 2.0002,2.0001417 0 1 0 0,-3.9999 l -13.15625,0 c -0.385699,-3.0798 -1.616203,-5.8809 -3.46875,-7.9998 l 24.625,0 c 3.208604,0 6.047759,-1.7511 7.96875,-4.3123 C 92.889741,1021.4889 94,1018.0893 94,1014.3629 l 0,-35.99891 c 0,-3.72642 -1.110259,-7.15722 -3.03125,-9.71847 C 89.047759,966.08427 86.208604,964.36439 83,964.36439 l -66,0 z m 0,3.99989 66,0 c 1.777396,0 3.448741,0.91079 4.78125,2.68742 C 89.113759,972.82833 90,975.4426 90,978.36399 l 0,35.99891 c 0,2.9215 -0.886241,5.5045 -2.21875,7.2811 -1.332509,1.7766 -3.003854,2.7186 -4.78125,2.7186 l -66,0 c -1.777396,0 -3.448741,-0.942 -4.78125,-2.7186 C 10.886241,1019.8674 10,1017.2844 10,1014.3629 l 0,-35.99891 c 0,-2.92139 0.886241,-5.53566 2.21875,-7.31229 1.332509,-1.77663 3.003854,-2.68742 4.78125,-2.68742 z m 1,1.99994 c -1.913054,0 -3.515437,1.14813 -4.5,2.62492 -0.984563,1.4768 -1.5,3.35511 -1.5,5.37485 l 0,35.99891 c 0,2.0198 0.515437,3.8668 1.5,5.3436 0.984563,1.4768 2.586946,2.6562 4.5,2.6562 l 64,0 c 1.913054,0 3.515437,-1.1794 4.5,-2.6562 0.984563,-1.4768 1.5,-3.3238 1.5,-5.3436 l 0,-35.99891 c 0,-2.01974 -0.515437,-3.89805 -1.5,-5.37485 -0.984563,-1.47679 -2.586946,-2.62492 -4.5,-2.62492 l -64,0 z m 0,3.99988 64,0 c 0.302946,0 0.694813,0.15159 1.15625,0.84373 C 83.617687,975.89997 84,977.05982 84,978.36399 l 0,35.99891 c 0,1.3042 -0.382313,2.4328 -0.84375,3.1249 -0.461437,0.6922 -0.853304,0.875 -1.15625,0.875 l -64,0 c -0.302946,0 -0.694813,-0.1828 -1.15625,-0.875 C 16.382313,1016.7957 16,1015.6671 16,1014.3629 l 0,-35.99891 c 0,-1.30417 0.382313,-2.46402 0.84375,-3.15616 0.461437,-0.69214 0.853304,-0.84373 1.15625,-0.84373 z m 26.78125,9.96846 a 2.0001996,2.0001413 0 0 0 -1.1875,3.4374 l 1.90625,1.9062 c -0.690692,0.79354 -1.03125,1.70126 -1.03125,2.68742 0,0.23103 0.02518,0.46462 0.0625,0.68748 l -1.125,-1.12497 a 2.0001996,2.0001413 0 0 0 -1.625,-0.59373 2.0001996,2.0001413 0 0 0 -1.1875,3.4374 l 1.96875,1.96869 c -0.194389,0.51185 -0.342818,1.06756 -0.4375,1.62495 l -1.125,0 a 2.0001998,2.0001415 0 0 0 -0.1875,0 2.0021961,2.0021378 0 1 0 0.1875,3.9999 l 1.375,0 c 0.131401,0.4444 0.305402,0.8689 0.5,1.2812 l -1.28125,1.2812 a 2.0001996,2.0001413 0 1 0 2.8125,2.8437 l 1,-1 c 1.293898,0.9891 2.859729,1.5937 4.59375,1.5937 1.734018,0 3.299852,-0.6046 4.59375,-1.5937 l 1,1 a 2.0001996,2.0001413 0 1 0 2.8125,-2.8437 l -1.28125,-1.2812 c 0.194598,-0.4123 0.368599,-0.8368 0.5,-1.2812 l 1.375,0 a 2.0001998,2.0001415 0 1 0 0,-3.9999 l -1.125,0 c -0.09402,-0.56156 -0.243358,-1.10813 -0.4375,-1.62495 l 1.96875,-1.96869 a 2.0001996,2.0001413 0 0 0 -1.65625,-3.4374 2.0001996,2.0001413 0 0 0 -1.15625,0.59373 l -1.125,1.12497 c 0.03694,-0.22286 0.0625,-0.45645 0.0625,-0.68748 0,-0.98616 -0.341397,-1.89388 -1.03125,-2.68742 l 1.90625,-1.9062 a 2.0001996,2.0001413 0 0 0 -1.65625,-3.4374 2.0001996,2.0001413 0 0 0 -1.15625,0.59374 l -2,1.99994 a 2.0001996,2.0001413 0 0 0 -0.5625,0.93747 c -0.326103,-0.0483 -0.673829,-0.0625 -1.03125,-0.0625 -0.368742,0 -0.727135,0.0112 -1.0625,0.0625 a 2.0001996,2.0001413 0 0 0 -0.53125,-0.93747 l -2,-1.99994 a 2.0001996,2.0001413 0 0 0 -1.625,-0.59374 z M 50,991.14486 c 0.225104,0.25265 0.46875,0.68852 0.46875,1.21872 0,0.53019 -0.243646,0.96606 -0.46875,1.21871 -0.225136,-0.25262 -0.46875,-0.68844 -0.46875,-1.21871 0,-0.53028 0.243614,-0.96609 0.46875,-1.21872 z m -2.5625,5.2811 c 0.723057,0.30037 1.592128,0.49999 2.5625,0.49999 0.970372,0 1.839443,-0.19962 2.5625,-0.49999 0.842168,0.84184 1.4375,2.01468 1.4375,3.34365 0,2.65419 -1.873198,4.59359 -4,4.59359 -2.126816,0 -4,-1.9394 -4,-4.59359 0,-1.3025 0.601348,-2.49495 1.4375,-3.34365 z M 50,1028.3625 c 3.698224,0 6.908096,3.3442 7.6875,7.9998 l -15.375,0 c 0.779404,-4.6556 3.989276,-7.9998 7.6875,-7.9998 z"
                  fill="" fill-opacity="1" stroke="none" marker="none" visibility="visible" display="inline"
                  overflow="visible"></path>
        </g>
    </g>
</svg>